@startuml
!pragma layout smetana
!theme cyborg-outline

title: DataSources not connected

class STORE {
  String name
}
class STORE
note bottom: TABLE IN MYSQL

class ACCOUNT {
   String firstName
   String lastName
   String storeId
   Object address: {
   -- Number streetNumber
   -- String streetName
   -- String city
   -- String country
   },
   Object bills: [{
   -- String title
   -- Number amount
   -- Date issueDate
   -- items: [{
   ---- Enum['high', 'medium', 'low'] importance
   ---- String title
   ---- Number amount
   -- }],
  }],
}
class ACCOUNT
note bottom: TABLE IN MONGODB

class OWNER {
  String firstName
  String lastName
}
class OWNER
note bottom: TABLE IN POSTGRES

class REVIEW {
    String title
    String message
    Number storeId
}
class REVIEW
note bottom: TABLE IN POSTGRES


class ADDRESS {
  String zipCode
  String address
}
class ADDRESS
note bottom: TABLE IN LIVE (memory)

class DVD {
  String title
  Int rentalPrice
}
class DVD
note bottom: TABLE IN MSSQL

class RENTALS {
  Date startDate
  Date endDate
}
class RENTALS
note bottom: TABLE IN MSSQL

class CARD {
  BigInt cardNumber
  Enum cardType
  Boolean isActive
}
note bottom: TABLE IN MARIADB

class CUSTOMER {
  String name
  String firstName
}
note bottom: TABLE IN MARIADB

class POST {
  String title
  String body
}
note bottom: REST API TYPICODE

class COMMENT {
  String name
  String email
  String body
}
note bottom: REST API TYPICODE

POST "1" -- "*" COMMENT : has
DVD "*" -- "*" RENTALS : has
CUSTOMER "1" -- "*" CARD : has

@enduml
